<mxfile host="app.diagrams.net" modified="2024-06-02T08:38:31.062Z" agent="5.0 (Windows NT 10.0; Win64; x64) AppleWebKit/537.36 (KHTML, like Gecko) Chrome/122.0.0.0 Safari/537.36" etag="3yYLVCG7Lx6k0Dle0A9i" version="20.8.5" type="github">
  <diagram id="nMY7_8F1BtrzsAjcgdW9" name="第 1 页">
    <mxGraphModel dx="875" dy="435" grid="1" gridSize="10" guides="1" tooltips="1" connect="1" arrows="1" fold="1" page="1" pageScale="1" pageWidth="827" pageHeight="1169" math="0" shadow="0">
      <root>
        <mxCell id="0" />
        <mxCell id="1" parent="0" />
        <mxCell id="qC7QsjY16g4wpngSqHru-120" value="" style="whiteSpace=wrap;html=1;aspect=fixed;strokeColor=default;fontSize=10;fillColor=none;" parent="1" vertex="1">
          <mxGeometry x="80" y="120" width="480" height="480" as="geometry" />
        </mxCell>
        <mxCell id="qC7QsjY16g4wpngSqHru-4" value="" style="ellipse;whiteSpace=wrap;html=1;" parent="1" vertex="1">
          <mxGeometry x="355" y="180" width="120" height="20" as="geometry" />
        </mxCell>
        <mxCell id="qC7QsjY16g4wpngSqHru-18" value="&lt;b&gt;受害人&lt;/b&gt;&lt;b style=&quot;border-color: var(--border-color);&quot;&gt;购买回迁房&lt;/b&gt;&lt;b&gt;&lt;br&gt;&lt;/b&gt;" style="text;html=1;align=center;verticalAlign=middle;resizable=0;points=[];autosize=1;strokeColor=none;fillColor=none;" parent="1" vertex="1">
          <mxGeometry x="190" y="165.5" width="120" height="30" as="geometry" />
        </mxCell>
        <mxCell id="qC7QsjY16g4wpngSqHru-20" value="&lt;b&gt;中介介绍房源，收服务费或者佣金&lt;/b&gt;" style="text;html=1;align=center;verticalAlign=middle;resizable=0;points=[];autosize=1;strokeColor=none;fillColor=none;" parent="1" vertex="1">
          <mxGeometry x="121" y="237" width="200" height="30" as="geometry" />
        </mxCell>
        <mxCell id="qC7QsjY16g4wpngSqHru-43" value="" style="shape=mxgraph.signs.people.man_1;html=1;pointerEvents=1;fillColor=none;strokeColor=default;verticalLabelPosition=bottom;verticalAlign=top;align=center;sketch=0;" parent="1" vertex="1">
          <mxGeometry x="375" y="141" width="20" height="50" as="geometry" />
        </mxCell>
        <mxCell id="qC7QsjY16g4wpngSqHru-44" value="" style="shape=mxgraph.signs.people.woman_2;html=1;pointerEvents=1;fillColor=none;strokeColor=default;verticalLabelPosition=bottom;verticalAlign=top;align=center;sketch=0;" parent="1" vertex="1">
          <mxGeometry x="395" y="141" width="20" height="49" as="geometry" />
        </mxCell>
        <mxCell id="qC7QsjY16g4wpngSqHru-46" value="" style="shape=mxgraph.signs.people.woman_2;html=1;pointerEvents=1;fillColor=none;strokeColor=default;verticalLabelPosition=bottom;verticalAlign=top;align=center;sketch=0;" parent="1" vertex="1">
          <mxGeometry x="415" y="151" width="20" height="49" as="geometry" />
        </mxCell>
        <mxCell id="qC7QsjY16g4wpngSqHru-47" value="" style="shape=mxgraph.signs.people.man_1;html=1;pointerEvents=1;fillColor=none;strokeColor=default;verticalLabelPosition=bottom;verticalAlign=top;align=center;sketch=0;" parent="1" vertex="1">
          <mxGeometry x="435" y="141" width="20" height="50" as="geometry" />
        </mxCell>
        <mxCell id="qC7QsjY16g4wpngSqHru-49" value="&lt;b&gt;&lt;br&gt;&lt;br&gt;&lt;font style=&quot;font-size: 8px;&quot;&gt;李小成&lt;/font&gt;&lt;/b&gt;" style="shape=actor;whiteSpace=wrap;html=1;fillColor=#dae8fc;strokeColor=#6c8ebf;" parent="1" vertex="1">
          <mxGeometry x="339.5" y="290" width="30" height="50" as="geometry" />
        </mxCell>
        <mxCell id="qC7QsjY16g4wpngSqHru-59" value="&lt;font style=&quot;font-size: 9px;&quot;&gt;&lt;b&gt;&lt;br&gt;&lt;br&gt;周其峰&lt;/b&gt;&lt;/font&gt;" style="shape=actor;whiteSpace=wrap;html=1;fillColor=#d5e8d4;strokeColor=#82b366;" parent="1" vertex="1">
          <mxGeometry x="428" y="290" width="30" height="50" as="geometry" />
        </mxCell>
        <mxCell id="qC7QsjY16g4wpngSqHru-79" value="" style="ellipse;whiteSpace=wrap;html=1;" parent="1" vertex="1">
          <mxGeometry x="355" y="252" width="120" height="20" as="geometry" />
        </mxCell>
        <mxCell id="qC7QsjY16g4wpngSqHru-60" value="&lt;b&gt;&lt;br&gt;&lt;br&gt;&lt;font style=&quot;font-size: 8px;&quot;&gt;李宗立&lt;/font&gt;&lt;/b&gt;" style="shape=actor;whiteSpace=wrap;html=1;fillColor=#e1d5e7;strokeColor=#9673a6;" parent="1" vertex="1">
          <mxGeometry x="470" y="290" width="30" height="50" as="geometry" />
        </mxCell>
        <mxCell id="qC7QsjY16g4wpngSqHru-61" value="&lt;b&gt;&lt;br&gt;&lt;br&gt;&lt;font style=&quot;font-size: 8px;&quot;&gt;范伟逢&lt;/font&gt;&lt;/b&gt;" style="shape=actor;whiteSpace=wrap;html=1;fillColor=#ffe6cc;strokeColor=#d79b00;" parent="1" vertex="1">
          <mxGeometry x="380" y="370" width="30" height="50" as="geometry" />
        </mxCell>
        <mxCell id="qC7QsjY16g4wpngSqHru-40" value="" style="shape=mxgraph.signs.travel.arriving_flights;html=1;pointerEvents=1;fillColor=none;strokeColor=default;verticalLabelPosition=bottom;verticalAlign=top;align=center;sketch=0;" parent="1" vertex="1">
          <mxGeometry x="373" y="224" width="33" height="42" as="geometry" />
        </mxCell>
        <mxCell id="qC7QsjY16g4wpngSqHru-81" value="" style="shape=mxgraph.signs.travel.arriving_flights;html=1;pointerEvents=1;fillColor=none;strokeColor=default;verticalLabelPosition=bottom;verticalAlign=top;align=center;sketch=0;" parent="1" vertex="1">
          <mxGeometry x="402" y="230" width="33" height="42" as="geometry" />
        </mxCell>
        <mxCell id="qC7QsjY16g4wpngSqHru-82" value="" style="shape=mxgraph.signs.travel.arriving_flights;html=1;pointerEvents=1;fillColor=none;strokeColor=default;verticalLabelPosition=bottom;verticalAlign=top;align=center;sketch=0;" parent="1" vertex="1">
          <mxGeometry x="430" y="225" width="33" height="42" as="geometry" />
        </mxCell>
        <mxCell id="qC7QsjY16g4wpngSqHru-102" value="&lt;b&gt;冒充业主签署指标转让协议，收钱&lt;/b&gt;" style="text;html=1;align=center;verticalAlign=middle;resizable=0;points=[];autosize=1;strokeColor=none;fillColor=none;" parent="1" vertex="1">
          <mxGeometry x="120" y="310" width="200" height="30" as="geometry" />
        </mxCell>
        <mxCell id="qC7QsjY16g4wpngSqHru-103" value="&lt;b&gt;&lt;br&gt;&lt;br&gt;&lt;font style=&quot;font-size: 8px;&quot;&gt;唐华韬&lt;/font&gt;&lt;/b&gt;" style="shape=actor;whiteSpace=wrap;html=1;fillColor=#f5f5f5;strokeColor=#666666;fontColor=#333333;" parent="1" vertex="1">
          <mxGeometry x="385" y="290" width="30" height="50" as="geometry" />
        </mxCell>
        <mxCell id="qC7QsjY16g4wpngSqHru-105" value="&lt;b&gt;提供场地，冒用保银名义与被害人&lt;br&gt;签署搬迁补偿安置协议&lt;/b&gt;" style="text;html=1;align=center;verticalAlign=middle;resizable=0;points=[];autosize=1;strokeColor=none;fillColor=none;" parent="1" vertex="1">
          <mxGeometry x="123" y="460" width="200" height="40" as="geometry" />
        </mxCell>
        <mxCell id="qC7QsjY16g4wpngSqHru-106" value="&lt;b&gt;伪造保银公章和回迁房买卖文件&lt;/b&gt;" style="text;html=1;align=center;verticalAlign=middle;resizable=0;points=[];autosize=1;strokeColor=none;fillColor=none;" parent="1" vertex="1">
          <mxGeometry x="130" y="390" width="190" height="30" as="geometry" />
        </mxCell>
        <mxCell id="qC7QsjY16g4wpngSqHru-107" value="&lt;font style=&quot;font-size: 9px;&quot;&gt;&lt;b&gt;&lt;br&gt;&lt;br&gt;周其峰&lt;/b&gt;&lt;/font&gt;" style="shape=actor;whiteSpace=wrap;html=1;fillColor=#d5e8d4;strokeColor=#82b366;" parent="1" vertex="1">
          <mxGeometry x="428" y="370" width="30" height="50" as="geometry" />
        </mxCell>
        <mxCell id="qC7QsjY16g4wpngSqHru-108" value="&lt;b&gt;&lt;br&gt;&lt;br&gt;&lt;font style=&quot;font-size: 8px;&quot;&gt;范伟逢&lt;/font&gt;&lt;/b&gt;" style="shape=actor;whiteSpace=wrap;html=1;fillColor=#ffe6cc;strokeColor=#d79b00;" parent="1" vertex="1">
          <mxGeometry x="400" y="450" width="30" height="50" as="geometry" />
        </mxCell>
        <mxCell id="qC7QsjY16g4wpngSqHru-110" value="" style="shape=flexArrow;endArrow=classic;html=1;rounded=0;fontSize=10;endWidth=14.166666666666668;endSize=5.833333333333334;" parent="1" edge="1">
          <mxGeometry width="50" height="50" relative="1" as="geometry">
            <mxPoint x="249.58" y="200" as="sourcePoint" />
            <mxPoint x="249.58" y="240" as="targetPoint" />
          </mxGeometry>
        </mxCell>
        <mxCell id="qC7QsjY16g4wpngSqHru-111" value="&lt;b&gt;注册保银物业公司发放虚假过渡费&lt;/b&gt;" style="text;html=1;align=center;verticalAlign=middle;resizable=0;points=[];autosize=1;strokeColor=none;fillColor=none;" parent="1" vertex="1">
          <mxGeometry x="125" y="550" width="200" height="30" as="geometry" />
        </mxCell>
        <mxCell id="qC7QsjY16g4wpngSqHru-112" value="&lt;b&gt;&lt;br&gt;&lt;br&gt;&lt;font style=&quot;font-size: 8px;&quot;&gt;范伟逢&lt;/font&gt;&lt;/b&gt;" style="shape=actor;whiteSpace=wrap;html=1;fillColor=#ffe6cc;strokeColor=#d79b00;" parent="1" vertex="1">
          <mxGeometry x="365" y="530" width="30" height="50" as="geometry" />
        </mxCell>
        <mxCell id="qC7QsjY16g4wpngSqHru-113" value="&lt;font style=&quot;font-size: 9px;&quot;&gt;&lt;b&gt;&lt;br&gt;&lt;br&gt;周其峰&lt;/b&gt;&lt;/font&gt;" style="shape=actor;whiteSpace=wrap;html=1;fillColor=#d5e8d4;strokeColor=#82b366;" parent="1" vertex="1">
          <mxGeometry x="425" y="530" width="30" height="50" as="geometry" />
        </mxCell>
        <mxCell id="qC7QsjY16g4wpngSqHru-114" value="" style="shape=flexArrow;endArrow=classic;html=1;rounded=0;fontSize=10;endWidth=14.166666666666668;endSize=5.833333333333334;" parent="1" edge="1">
          <mxGeometry width="50" height="50" relative="1" as="geometry">
            <mxPoint x="249.57999999999993" y="272" as="sourcePoint" />
            <mxPoint x="249.57999999999993" y="312" as="targetPoint" />
          </mxGeometry>
        </mxCell>
        <mxCell id="qC7QsjY16g4wpngSqHru-115" value="" style="shape=flexArrow;endArrow=classic;html=1;rounded=0;fontSize=10;endWidth=14.166666666666668;endSize=5.833333333333334;" parent="1" edge="1">
          <mxGeometry width="50" height="50" relative="1" as="geometry">
            <mxPoint x="249.57999999999993" y="350" as="sourcePoint" />
            <mxPoint x="249.57999999999993" y="390" as="targetPoint" />
          </mxGeometry>
        </mxCell>
        <mxCell id="qC7QsjY16g4wpngSqHru-116" value="" style="shape=flexArrow;endArrow=classic;html=1;rounded=0;fontSize=10;endWidth=14.166666666666668;endSize=5.833333333333334;" parent="1" edge="1">
          <mxGeometry width="50" height="50" relative="1" as="geometry">
            <mxPoint x="249.57999999999993" y="420" as="sourcePoint" />
            <mxPoint x="249.57999999999993" y="460" as="targetPoint" />
          </mxGeometry>
        </mxCell>
        <mxCell id="qC7QsjY16g4wpngSqHru-117" value="" style="shape=flexArrow;endArrow=classic;html=1;rounded=0;fontSize=10;endWidth=14.166666666666668;endSize=5.833333333333334;" parent="1" edge="1">
          <mxGeometry width="50" height="50" relative="1" as="geometry">
            <mxPoint x="249.57999999999993" y="510" as="sourcePoint" />
            <mxPoint x="249.57999999999993" y="550" as="targetPoint" />
          </mxGeometry>
        </mxCell>
        <mxCell id="5yCmDJtd9Wti_51StDvj-2" value="&lt;b&gt;20+&lt;/b&gt;" style="whiteSpace=wrap;html=1;shape=mxgraph.basic.oval_callout;strokeColor=default;fontSize=10;fillColor=none;" vertex="1" parent="1">
          <mxGeometry x="455" y="124" width="60" height="31" as="geometry" />
        </mxCell>
        <mxCell id="5yCmDJtd9Wti_51StDvj-3" value="&lt;b&gt;&lt;font style=&quot;font-size: 7px;&quot;&gt;1对1&amp;nbsp;&lt;br&gt;1对多&lt;br&gt;&lt;/font&gt;&lt;/b&gt;" style="whiteSpace=wrap;html=1;shape=mxgraph.basic.oval_callout;strokeColor=default;fontSize=10;fillColor=none;" vertex="1" parent="1">
          <mxGeometry x="458" y="200" width="92" height="37" as="geometry" />
        </mxCell>
      </root>
    </mxGraphModel>
  </diagram>
</mxfile>
